PathFileType	4	(X/Y/Z)	C:\Users\WrightLab\Desktop\Jo\P4V122.trc
DataRate	CameraRate	NumFrames	NumMarkers	Units	OrigDataRate	OrigDataStartFrame	OrigNumFrames
100.00	100.00	       45	19	mm	100.00	1	       633
Frame#	Time	Headset_Front			Headset_Back			Headset_Left			Headset_Right			Left_Shoulder			Right_Shoulder			Sternum			C7			Left Elbow			Right Elbow			Left Wrist			Right Wrist			Left ASIS			Right ASIS			S2			Left Knee			Right Knee			Left Ankle			Right Ankle			
		X1	Y1	Z1	X2	Y2	Z2	X3	Y3	Z3	X4	Y4	Z4	X5	Y5	Z5	X6	Y6	Z6	X7	Y7	Z7	X8	Y8	Z8	X9	Y9	Z9	X10	Y10	Z10	X11	Y11	Z11	X12	Y12	Z12	X13	Y13	Z13	X14	Y14	Z14	X15	Y15	Z15	X16	Y16	Z16	X17	Y17	Z17	X18	Y18	Z18	X19	Y19	Z19	

1	0.000																															125.07921	885.94434	-1476.77881													49.65467	507.76913	-1602.00134										
2	0.010																															126.64915	885.43622	-1476.19543													49.68525	507.85956	-1601.71814										
3	0.020																															128.33054	882.63544	-1480.26392													49.68655	507.86951	-1601.70679										
4	0.030																															130.76857	879.63525	-1483.83264													49.71799	507.96634	-1601.41614										
5	0.040																															131.91858	877.83691	-1488.96326													49.71221	507.95648	-1601.47058										
6	0.050																															134.51625	875.34705	-1493.26367													49.71703	507.96664	-1601.42542										
7	0.060																															135.94548	873.83496	-1498.66187													49.71078	507.94257	-1601.48267										
8	0.070																															138.02118	871.50165	-1502.77405													49.68716	507.83435	-1601.69702										
9	0.080																															140.33551	869.42200	-1506.94714													49.66608	507.74356	-1601.88892										
10	0.090																															142.08174	867.28912	-1510.87830													49.63897	507.64401	-1602.13770										
11	0.100																															143.84705	864.03436	-1521.17041													49.61224	507.51193	-1602.37903										
12	0.110																															146.16589	864.21771	-1519.93555													49.55603	507.31180	-1602.89563										
13	0.120																															147.96585	862.75385	-1524.15588													49.54055	507.25452	-1603.03760										
14	0.130																															149.97960	861.30103	-1528.06580													49.48764	507.03876	-1603.52051										
15	0.140																															151.73445	860.01141	-1531.98181													49.41839	506.77896	-1604.15515										
16	0.150																															153.41978	859.36072	-1536.51367													49.37661	506.65308	-1604.54163										
17	0.160																															155.57301	856.71863	-1545.32300													49.35257	506.53952	-1604.75916										
18	0.170																															156.80650	856.92706	-1547.87854													49.29578	506.27737	-1605.27368										
19	0.180																															158.25967	856.74591	-1547.28625													49.29094	506.29846	-1605.32263										
20	0.190																															160.07822	856.16510	-1550.83411													49.08153	505.62155	-1604.59485										
21	0.200																															162.65407	853.25818	-1562.51184													49.06856	505.48648	-1604.70361										
22	0.210																															162.78700	855.18213	-1556.99207													48.21594	505.97986	-1601.93250										
23	0.220																															163.84653	854.90723	-1560.02380													48.17717	505.70328	-1602.27185										
24	0.230																															166.42006	851.99530	-1571.97144													48.13638	505.45108	-1602.63293										
25	0.240																															166.99155	854.04858	-1564.83398													48.14777	504.41113	-1602.96985										
26	0.250																															168.34404	853.94788	-1567.30774													48.13807	504.26169	-1603.04504										
27	0.260																															169.37154	853.73328	-1569.38770													47.77901	503.77292	-1602.09680										
28	0.270																															170.07419	853.38116	-1570.87695													47.74770	503.54929	-1602.37024										
29	0.280																															171.48978	852.84619	-1572.01501													47.10859	503.59787	-1600.32056										
30	0.290																															172.13068	852.58582	-1573.05005													47.09085	503.46252	-1600.47412										
31	0.300																															173.93166	849.02124	-1583.71875													47.12685	503.43042	-1600.12500										
32	0.310																															174.29677	851.56757	-1573.53052													47.15622	503.41571	-1599.84143										
33	0.320																															174.87531	851.38379	-1573.66858													47.24740	503.54605	-1598.98254										
34	0.330																															175.65092	850.93604	-1573.28857													47.33414	503.68417	-1598.16711										
35	0.340																															176.00352	850.88531	-1573.16089													47.46171	503.92877	-1596.97290										
36	0.350																															176.67087	850.74908	-1572.50073													47.55474	504.12531	-1596.10413	-278.67325	512.76617	-1553.15503							
37	0.360																															176.94875	850.82428	-1571.64111													46.98450	504.47122	-1593.44373	-278.62296	512.86432	-1552.83533							
38	0.370																															177.89606	848.04626	-1577.90979													47.01705	504.49963	-1593.13489	-278.53961	512.99384	-1552.29761							
39	0.380																															177.46783	849.93878	-1567.43262													47.01432	504.47067	-1593.15710	-279.14633	513.37695	-1549.80481							
40	0.390																															177.83653	850.11090	-1565.41479													47.01198	504.41840	-1593.17261	-279.08630	513.45343	-1549.41394							
41	0.400																															177.95415	850.39929	-1563.17053													46.76097	503.58173	-1591.73047	-279.29681	513.22894	-1547.83777							
42	0.410																															177.56084	850.50861	-1559.88086													46.81615	503.69470	-1591.21619	-279.22626	512.36847	-1548.41418							
43	0.420																															177.65297	850.90668	-1556.60596													46.88929	503.89349	-1590.54077	-279.19391	512.35150	-1548.19067							
44	0.430																															177.28775	850.80017	-1552.16345													47.57062	503.01941	-1591.66858	-279.18628	512.30322	-1548.12769							
45	0.440																															177.03806	850.91229	-1547.88599													47.57095	503.02454	-1591.66602	-280.44513	513.84155	-1543.66382							
